<?xml version="1.0" ?>
<svg xmlns="http://www.w3.org/2000/svg" version="1.1" width="600" height="600">
  <defs/>
  <g>
    <path stroke-width="0" fill="rgb(0, 0, 0)" opacity="1.0" d="M 242.7822265625 313.45428466796875 C 242.7822265625 312.21148681640625 242.8599853515625 311.04632568359375 243.01556396484375 309.9588623046875 C 243.17108154296875 308.716064453125 243.24887084960938 307.31787109375 243.24887084960938 305.76434326171875 C 243.24887084960938 296.6762390136719 242.82113647460938 287.78228759765625 241.96563720703125 279.08258056640625 C 241.11016845703125 270.3828125 239.82696533203125 261.8772888183594 238.11602783203125 253.56591796875 C 236.48281860351562 245.1768798828125 234.5579833984375 237.2733154296875 232.341552734375 229.85525512695312 C 230.12506103515625 222.43719482421875 227.61697387695312 215.50457763671875 224.81723022460938 209.05743408203125 C 223.57290649414062 219.0 220.69537353515625 228.3211669921875 216.1846923828125 237.0208740234375 C 211.82952880859375 245.56527709960938 206.07452392578125 253.099853515625 198.91961669921875 259.6246643066406 C 191.9202880859375 265.9941101074219 183.8321533203125 270.96539306640625 174.65521240234375 274.53851318359375 C 165.63385009765625 278.11163330078125 156.06805419921875 279.8981628417969 145.9578857421875 279.8981628417969 C 135.84768676757812 279.8981628417969 127.21514892578125 278.3446350097656 120.06027221679688 275.23760986328125 C 121.69345092773438 271.276123046875 123.32662963867188 267.31463623046875 124.95980834960938 263.3531494140625 C 131.4925537109375 265.68341064453125 138.49188232421875 266.84857177734375 145.9578857421875 266.84857177734375 C 154.979248046875 266.84857177734375 163.45623779296875 265.13970947265625 171.38885498046875 261.721923828125 C 179.47698974609375 258.3041687011719 186.47634887695312 253.64361572265625 192.38690185546875 247.74020385742188 C 198.4530029296875 241.68145751953125 203.197021484375 234.6129150390625 206.61892700195312 226.53460693359375 C 210.04083251953125 218.45623779296875 211.75177001953125 209.834228515625 211.75177001953125 200.66839599609375 C 211.75177001953125 198.80416870117188 211.75177001953125 197.09527587890625 211.75177001953125 195.54177856445312 C 211.75177001953125 193.8328857421875 211.44070434570312 192.1240234375 210.81854248046875 190.41513061523438 C 202.10821533203125 190.41513061523438 193.39791870117188 190.41513061523438 184.6876220703125 190.41513061523438 C 175.97732543945312 190.41513061523438 167.26702880859375 190.41513061523438 158.55670166015625 190.41513061523438 C 158.55670166015625 186.06527709960938 158.55670166015625 181.71539306640625 158.55670166015625 177.36553955078125 C 166.76150512695312 177.36553955078125 174.96630859375 177.36553955078125 183.17108154296875 177.36553955078125 C 191.37591552734375 177.36553955078125 199.5806884765625 177.36553955078125 207.78546142578125 177.36553955078125 C 203.2747802734375 166.02481079101562 196.0421142578125 156.47064208984375 186.08749389648438 148.7030029296875 C 176.28839111328125 140.93536376953125 165.16720581054688 136.35247802734375 152.72390747070312 134.95431518554688 C 153.03500366210938 130.60443115234375 153.3460693359375 126.25454711914062 153.65716552734375 121.90469360351562 C 161.66754150390625 122.68145751953125 169.21127319335938 124.56509399414062 176.28839111328125 127.55563354492188 C 183.36550903320312 130.54617309570312 189.97601318359375 134.64358520507812 196.119873046875 139.847900390625 C 202.26376342773438 145.05221557617188 207.47442626953125 150.78082275390625 211.75177001953125 157.03378295898438 C 216.0291748046875 163.28671264648438 219.373291015625 170.06396484375 221.7841796875 177.36553955078125 C 230.727783203125 177.36553955078125 239.67141723632812 177.36553955078125 248.61505126953125 177.36553955078125 C 257.55865478515625 177.36553955078125 266.50225830078125 177.36553955078125 275.44586181640625 177.36553955078125 C 275.44586181640625 181.71539306640625 275.44586181640625 186.06527709960938 275.44586181640625 190.41513061523438 C 267.8243408203125 190.41513061523438 260.2028503417969 190.41513061523438 252.58132934570312 190.41513061523438 C 244.95980834960938 190.41513061523438 237.33831787109375 190.41513061523438 229.716796875 190.41513061523438 C 233.9163818359375 197.406005859375 237.62994384765625 205.17364501953125 240.857421875 213.718017578125 C 244.08489990234375 222.26239013671875 246.8262939453125 231.58355712890625 249.0816650390625 241.68145751953125 C 251.414794921875 251.70169067382812 253.16461181640625 262.05206298828125 254.3311767578125 272.7325439453125 C 255.49774169921875 283.41302490234375 256.08099365234375 294.4236145019531 256.08099365234375 305.76434326171875 C 256.08099365234375 317.1051025390625 254.99221801757812 327.513671875 252.81463623046875 336.990234375 C 250.6370849609375 346.31134033203125 247.68179321289062 354.855712890625 243.94879150390625 362.62335205078125 C 240.371337890625 370.3909912109375 236.40505981445312 377.5372314453125 232.04989624023438 384.06201171875 C 227.85028076171875 390.5867919921875 223.80621337890625 396.7232666015625 219.91769409179688 402.4713134765625 C 214.78485107421875 409.92822265625 210.4296875 416.6083984375 206.85223388671875 422.51171875 C 203.2747802734375 428.259765625 201.486083984375 434.08551025390625 201.486083984375 439.9888916015625 C 201.486083984375 447.1351318359375 203.9747314453125 453.19384765625 208.9520263671875 458.1651611328125 C 214.08489990234375 463.291748046875 220.228759765625 465.8551025390625 227.3836669921875 465.8551025390625 C 234.694091796875 465.8551025390625 240.91574096679688 463.291748046875 246.048583984375 458.1651611328125 C 251.33700561523438 453.19384765625 253.981201171875 447.1351318359375 253.981201171875 439.9888916015625 C 253.981201171875 435.79437255859375 253.2034912109375 432.2213134765625 251.6480712890625 429.26959228515625 C 255.53662109375 427.32763671875 259.4251403808594 425.3857421875 263.31365966796875 423.44384765625 C 265.64678955078125 428.259765625 266.8133544921875 433.7747802734375 266.8133544921875 439.9888916015625 C 266.8133544921875 450.708251953125 263.0025634765625 459.8740234375 255.38107299804688 467.486328125 C 247.91510009765625 475.09857177734375 238.5826416015625 478.9046630859375 227.3836669921875 478.9046630859375 C 216.65130615234375 478.9046630859375 207.3966064453125 475.09857177734375 199.61956787109375 467.486328125 C 191.998046875 459.8740234375 188.18731689453125 450.708251953125 188.18731689453125 439.9888916015625 C 188.18731689453125 432.2213134765625 190.2093505859375 424.764404296875 194.25341796875 417.6181640625 C 198.4530029296875 410.471923828125 203.43032836914062 402.859619140625 209.18536376953125 394.7813720703125 C 211.51846313476562 391.5189208984375 213.92935180664062 388.02349853515625 216.41802978515625 384.2950439453125 C 219.06219482421875 380.56658935546875 221.55087280273438 376.6051025390625 223.88397216796875 372.41058349609375 C 218.05120849609375 376.915771484375 211.771240234375 380.294677734375 205.0440673828125 382.54736328125 C 198.31692504882812 384.7999267578125 191.142578125 385.92626953125 183.52105712890625 385.92626953125 C 170.76669311523438 385.92626953125 158.71224975585938 382.27545166015625 147.35772705078125 374.973876953125 C 136.00323486328125 367.67230224609375 127.21514892578125 357.8851318359375 120.9935302734375 345.6123046875 C 124.95980834960938 343.5150146484375 128.92611694335938 341.417724609375 132.89242553710938 339.32049560546875 C 138.0252685546875 349.41839599609375 145.1024169921875 357.4967041015625 154.123779296875 363.55548095703125 C 163.30072021484375 369.4588623046875 173.09979248046875 372.41058349609375 183.52105712890625 372.41058349609375 C 190.98703002929688 372.41058349609375 198.14193725585938 370.9346923828125 204.9857177734375 367.9830322265625 C 211.985107421875 365.0313720703125 218.05120849609375 360.91448974609375 223.18405151367188 355.63250732421875 C 228.47247314453125 350.1951904296875 232.82760620117188 343.90338134765625 236.24951171875 336.7572021484375 C 239.67141723632812 329.45562744140625 241.8489990234375 321.68798828125 242.7822265625 313.45428466796875M 438.53076171875 299.47259521484375 C 438.53076171875 306.30810546875 437.20867919921875 312.67755126953125 434.564453125 318.5809326171875 C 432.0758056640625 324.3289794921875 428.6539306640625 329.3779296875 424.29876708984375 333.727783203125 C 419.943603515625 338.07763671875 414.810791015625 341.5731201171875 408.900146484375 344.214111328125 C 402.9896240234375 346.69970703125 396.690185546875 347.94256591796875 390.001953125 347.94256591796875 C 383.46923828125 347.94256591796875 377.24755859375 346.69970703125 371.3370361328125 344.214111328125 C 365.58203125 341.5731201171875 360.52685546875 338.07763671875 356.1717529296875 333.727783203125 C 351.97216796875 329.3779296875 348.55023193359375 324.3289794921875 345.906005859375 318.5809326171875 C 343.4173583984375 312.67755126953125 342.17303466796875 306.30810546875 342.17303466796875 299.47259521484375 C 342.17303466796875 292.6759033203125 342.17303466796875 285.8792419433594 342.17303466796875 279.08258056640625 C 342.17303466796875 272.285888671875 342.17303466796875 265.4892272949219 342.17303466796875 258.69256591796875 C 346.5281982421875 258.69256591796875 350.88336181640625 258.69256591796875 355.238525390625 258.69256591796875 C 355.238525390625 262.4210205078125 355.238525390625 266.14947509765625 355.238525390625 269.8779296875 C 366.9429931640625 269.8779296875 378.6474609375 269.8779296875 390.3519287109375 269.8779296875 C 402.056396484375 269.8779296875 413.7608642578125 269.8779296875 425.46533203125 269.8779296875 C 425.46533203125 266.14947509765625 425.46533203125 262.4210205078125 425.46533203125 258.69256591796875 C 429.8204345703125 258.69256591796875 434.1756591796875 258.69256591796875 438.53076171875 258.69256591796875 C 438.53076171875 265.4892272949219 438.53076171875 272.285888671875 438.53076171875 279.08258056640625 C 438.53076171875 285.8792419433594 438.53076171875 292.6759033203125 438.53076171875 299.47259521484375M 390.001953125 334.4268798828125 C 399.6455078125 334.4268798828125 407.88916015625 331.0091552734375 414.73297119140625 324.17364501953125 C 421.5767822265625 317.338134765625 425.15423583984375 309.10443115234375 425.46533203125 299.47259521484375 C 425.46533203125 294.1129150390625 425.46533203125 288.7532653808594 425.46533203125 283.39361572265625 C 413.7608642578125 283.39361572265625 402.056396484375 283.39361572265625 390.3519287109375 283.39361572265625 C 378.6474609375 283.39361572265625 366.9429931640625 283.39361572265625 355.238525390625 283.39361572265625 C 355.238525390625 288.7532653808594 355.238525390625 294.1129150390625 355.238525390625 299.47259521484375 C 355.238525390625 309.10443115234375 358.660400390625 317.338134765625 365.50421142578125 324.17364501953125 C 372.3480224609375 331.0091552734375 380.513916015625 334.4268798828125 390.001953125 334.4268798828125M 313.94232177734375 179.69583129882812 C 313.94232177734375 186.44393920898438 313.94232177734375 193.19204711914062 313.94232177734375 199.940185546875 C 313.94232177734375 206.68832397460938 313.94232177734375 213.43643188476562 313.94232177734375 220.1845703125 C 313.94232177734375 226.93267822265625 313.94232177734375 233.68081665039062 313.94232177734375 240.42892456054688 C 313.94232177734375 247.17706298828125 313.94232177734375 253.9251708984375 313.94232177734375 260.67327880859375 C 313.94232177734375 267.4214172363281 313.94232177734375 274.1695556640625 313.94232177734375 280.91766357421875 C 313.94232177734375 287.665771484375 313.94232177734375 294.4139404296875 313.94232177734375 301.16204833984375 C 313.94232177734375 314.6583251953125 313.94232177734375 328.154541015625 313.94232177734375 341.6507568359375 C 313.94232177734375 353.3798828125 316.664306640625 362.1767578125 322.10821533203125 368.041259765625 C 327.55218505859375 373.90582275390625 335.71807861328125 376.838134765625 346.60595703125 376.838134765625 C 353.7025146484375 376.838134765625 360.799072265625 376.838134765625 367.8956298828125 376.838134765625 C 374.9921875 376.838134765625 382.08880615234375 376.838134765625 389.18536376953125 376.838134765625 C 396.2818603515625 376.838134765625 403.37847900390625 376.838134765625 410.47503662109375 376.838134765625 C 417.57159423828125 376.838134765625 424.668212890625 376.838134765625 431.7647705078125 376.838134765625 C 431.7647705078125 381.18798828125 431.7647705078125 385.537841796875 431.7647705078125 389.8876953125 C 424.668212890625 389.8876953125 417.57159423828125 389.8876953125 410.47503662109375 389.8876953125 C 403.37847900390625 389.8876953125 396.2818603515625 389.8876953125 389.18536376953125 389.8876953125 C 382.08880615234375 389.8876953125 374.9921875 389.8876953125 367.8956298828125 389.8876953125 C 360.799072265625 389.8876953125 353.7025146484375 389.8876953125 346.60595703125 389.8876953125 C 331.2073974609375 389.8876953125 319.658447265625 385.86798095703125 311.95916748046875 377.8284912109375 C 304.2598876953125 369.78900146484375 300.41021728515625 357.729736328125 300.41021728515625 341.6507568359375 C 300.41021728515625 328.154541015625 300.41021728515625 314.6583251953125 300.41021728515625 301.16204833984375 C 300.41021728515625 294.4139404296875 300.41021728515625 287.665771484375 300.41021728515625 280.91766357421875 C 300.41021728515625 274.1695556640625 300.41021728515625 267.4214172363281 300.41021728515625 260.67327880859375 C 300.41021728515625 247.17706298828125 300.41021728515625 233.68081665039062 300.41021728515625 220.1845703125 C 300.41021728515625 213.43643188476562 300.41021728515625 206.68832397460938 300.41021728515625 199.940185546875 C 300.41021728515625 193.19204711914062 300.41021728515625 186.44393920898438 300.41021728515625 179.69583129882812 C 304.92095947265625 179.69583129882812 309.431640625 179.69583129882812 313.94232177734375 179.69583129882812M 434.097900390625 210.92166137695312 C 449.41864013671875 210.92166137695312 460.90924072265625 214.902587890625 468.5697021484375 222.8643798828125 C 476.2301025390625 230.82620239257812 480.060302734375 242.7689208984375 480.060302734375 258.69256591796875 C 480.060302734375 272.16937255859375 480.060302734375 285.6462097167969 480.060302734375 299.123046875 C 480.060302734375 312.599853515625 480.060302734375 326.07672119140625 480.060302734375 339.55352783203125 C 480.060302734375 353.03033447265625 480.060302734375 366.5072021484375 480.060302734375 379.9840087890625 C 480.060302734375 393.4608154296875 480.060302734375 406.9376220703125 480.060302734375 420.41448974609375 C 475.6273193359375 420.41448974609375 471.1944580078125 420.41448974609375 466.761474609375 420.41448974609375 C 466.761474609375 406.9376220703125 466.761474609375 393.4608154296875 466.761474609375 379.9840087890625 C 466.761474609375 366.5072021484375 466.761474609375 353.03033447265625 466.761474609375 339.55352783203125 C 466.761474609375 326.07672119140625 466.761474609375 312.599853515625 466.761474609375 299.123046875 C 466.761474609375 285.6462097167969 466.761474609375 272.16937255859375 466.761474609375 258.69256591796875 C 466.761474609375 246.5750732421875 464.1173095703125 237.79763793945312 458.828857421875 232.36029052734375 C 453.696044921875 226.76763916015625 445.452392578125 223.97125244140625 434.097900390625 223.97125244140625 C 426.96240234375 223.97125244140625 419.82696533203125 223.97125244140625 412.6915283203125 223.97125244140625 C 405.5560302734375 223.97125244140625 398.420654296875 223.97125244140625 391.28515625 223.97125244140625 C 384.149658203125 223.97125244140625 377.0142822265625 223.97125244140625 369.8787841796875 223.97125244140625 C 362.74334716796875 223.97125244140625 355.60791015625 223.97125244140625 348.472412109375 223.97125244140625 C 348.472412109375 219.62139892578125 348.472412109375 215.27154541015625 348.472412109375 210.92166137695312 C 355.60791015625 210.92166137695312 362.74334716796875 210.92166137695312 369.8787841796875 210.92166137695312 C 377.0142822265625 210.92166137695312 384.149658203125 210.92166137695312 391.28515625 210.92166137695312 C 398.420654296875 210.92166137695312 405.5560302734375 210.92166137695312 412.6915283203125 210.92166137695312 C 419.82696533203125 210.92166137695312 426.96240234375 210.92166137695312 434.097900390625 210.92166137695312"/>
  </g>
</svg>
