<?xml version="1.0" encoding="utf-8"?>
<svg xmlns="http://www.w3.org/2000/svg" xmlns:ev="http://www.w3.org/2001/xml-events" xmlns:xlink="http://www.w3.org/1999/xlink" version="1.1" baseProfile="full" width="1543.0" height="1532.0" viewBox="296.0 -1438.0 1543.0 1532.0">
<defs/>
<g><path d="M 822.000000 -616.000000 C 822.000000 -621.333333 822.333333 -626.333333 823.000000 -631.000000 C 823.666667 -636.333333 824.000000 -642.333333 824.000000 -649.000000 C 824.000000 -688.000000 822.166667 -726.166667 818.500000 -763.500000 C 814.833333 -800.833333 809.333333 -837.333333 802.000000 -873.000000 C 795.000000 -909.000000 786.750000 -942.916667 777.250000 -974.750000 C 767.750000 -1006.583333 757.000000 -1036.333333 745.000000 -1064.000000 C 739.666667 -1021.333333 727.333333 -981.333333 708.000000 -944.000000 C 689.333333 -907.333333 664.666667 -875.000000 634.000000 -847.000000 C 604.000000 -819.666667 569.333333 -798.333333 530.000000 -783.000000 C 491.333333 -767.666667 450.333333 -760.000000 407.000000 -760.000000 C 363.666667 -760.000000 326.666667 -766.666667 296.000000 -780.000000 C 303.000000 -797.000000 310.000000 -814.000000 317.000000 -831.000000 C 345.000000 -821.000000 375.000000 -816.000000 407.000000 -816.000000 C 445.666667 -816.000000 482.000000 -823.333333 516.000000 -838.000000 C 550.666667 -852.666667 580.666667 -872.666667 606.000000 -898.000000 C 632.000000 -924.000000 652.333333 -954.333333 667.000000 -989.000000 C 681.666667 -1023.666667 689.000000 -1060.666667 689.000000 -1100.000000 C 689.000000 -1108.000000 689.000000 -1115.333333 689.000000 -1122.000000 C 689.000000 -1129.333333 687.666667 -1136.666667 685.000000 -1144.000000 C 647.666667 -1144.000000 610.333333 -1144.000000 573.000000 -1144.000000 C 535.666667 -1144.000000 498.333333 -1144.000000 461.000000 -1144.000000 C 461.000000 -1162.666667 461.000000 -1181.333333 461.000000 -1200.000000 C 496.166667 -1200.000000 531.333333 -1200.000000 566.500000 -1200.000000 C 601.666667 -1200.000000 636.833333 -1200.000000 672.000000 -1200.000000 C 652.666667 -1248.666667 621.666667 -1289.666667 579.000000 -1323.000000 C 537.000000 -1356.333333 489.333333 -1376.000000 436.000000 -1382.000000 C 437.333333 -1400.666667 438.666667 -1419.333333 440.000000 -1438.000000 C 474.333333 -1434.666667 506.666667 -1426.583333 537.000000 -1413.750000 C 567.333333 -1400.916667 595.666667 -1383.333333 622.000000 -1361.000000 C 648.333333 -1338.666667 670.666667 -1314.083333 689.000000 -1287.250000 C 707.333333 -1260.416667 721.666667 -1231.333333 732.000000 -1200.000000 C 770.333333 -1200.000000 808.666667 -1200.000000 847.000000 -1200.000000 C 885.333333 -1200.000000 923.666667 -1200.000000 962.000000 -1200.000000 C 962.000000 -1181.333333 962.000000 -1162.666667 962.000000 -1144.000000 C 929.333333 -1144.000000 896.666667 -1144.000000 864.000000 -1144.000000 C 831.333333 -1144.000000 798.666667 -1144.000000 766.000000 -1144.000000 C 784.000000 -1114.000000 799.916667 -1080.666667 813.750000 -1044.000000 C 827.583333 -1007.333333 839.333333 -967.333333 849.000000 -924.000000 C 859.000000 -881.000000 866.500000 -836.583333 871.500000 -790.750000 C 876.500000 -744.916667 879.000000 -697.666667 879.000000 -649.000000 C 879.000000 -600.333333 874.333333 -555.666667 865.000000 -515.000000 C 855.666667 -475.000000 843.000000 -438.333333 827.000000 -405.000000 C 811.666667 -371.666667 794.666667 -341.000000 776.000000 -313.000000 C 758.000000 -285.000000 740.666667 -258.666667 724.000000 -234.000000 C 702.000000 -202.000000 683.333333 -173.333333 668.000000 -148.000000 C 652.666667 -123.333333 645.000000 -98.333333 645.000000 -73.000000 C 645.000000 -42.333333 655.666667 -16.333333 677.000000 5.000000 C 699.000000 27.000000 725.333333 38.000000 756.000000 38.000000 C 787.333333 38.000000 814.000000 27.000000 836.000000 5.000000 C 858.666667 -16.333333 870.000000 -42.333333 870.000000 -73.000000 C 870.000000 -91.000000 866.666667 -106.333333 860.000000 -119.000000 C 876.666667 -127.333333 893.333333 -135.666667 910.000000 -144.000000 C 920.000000 -123.333333 925.000000 -99.666667 925.000000 -73.000000 C 925.000000 -27.000000 908.666667 12.333333 876.000000 45.000000 C 844.000000 77.666667 804.000000 94.000000 756.000000 94.000000 C 710.000000 94.000000 670.333333 77.666667 637.000000 45.000000 C 604.333333 12.333333 588.000000 -27.000000 588.000000 -73.000000 C 588.000000 -106.333333 596.666667 -138.333333 614.000000 -169.000000 C 632.000000 -199.666667 653.333333 -232.333333 678.000000 -267.000000 C 688.000000 -281.000000 698.333333 -296.000000 709.000000 -312.000000 C 720.333333 -328.000000 731.000000 -345.000000 741.000000 -363.000000 C 716.000000 -343.666667 689.083333 -329.166667 660.250000 -319.500000 C 631.416667 -309.833333 600.666667 -305.000000 568.000000 -305.000000 C 513.333333 -305.000000 461.666667 -320.666667 413.000000 -352.000000 C 364.333333 -383.333333 326.666667 -425.333333 300.000000 -478.000000 C 317.000000 -487.000000 334.000000 -496.000000 351.000000 -505.000000 C 373.000000 -461.666667 403.333333 -427.000000 442.000000 -401.000000 C 481.333333 -375.666667 523.333333 -363.000000 568.000000 -363.000000 C 600.000000 -363.000000 630.666667 -369.333333 660.000000 -382.000000 C 690.000000 -394.666667 716.000000 -412.333333 738.000000 -435.000000 C 760.666667 -458.333333 779.333333 -485.333333 794.000000 -516.000000 C 808.666667 -547.333333 818.000000 -580.666667 822.000000 -616.000000z M 1661.000000 -676.000000 C 1661.000000 -646.666667 1655.333333 -619.333333 1644.000000 -594.000000 C 1633.333333 -569.333333 1618.666667 -547.666667 1600.000000 -529.000000 C 1581.333333 -510.333333 1559.333333 -495.333333 1534.000000 -484.000000 C 1508.666667 -473.333333 1481.666667 -468.000000 1453.000000 -468.000000 C 1425.000000 -468.000000 1398.333333 -473.333333 1373.000000 -484.000000 C 1348.333333 -495.333333 1326.666667 -510.333333 1308.000000 -529.000000 C 1290.000000 -547.666667 1275.333333 -569.333333 1264.000000 -594.000000 C 1253.333333 -619.333333 1248.000000 -646.666667 1248.000000 -676.000000 C 1248.000000 -705.166667 1248.000000 -734.333333 1248.000000 -763.500000 C 1248.000000 -792.666667 1248.000000 -821.833333 1248.000000 -851.000000 C 1266.666667 -851.000000 1285.333333 -851.000000 1304.000000 -851.000000 C 1304.000000 -835.000000 1304.000000 -819.000000 1304.000000 -803.000000 C 1354.166667 -803.000000 1404.333333 -803.000000 1454.500000 -803.000000 C 1504.666667 -803.000000 1554.833333 -803.000000 1605.000000 -803.000000 C 1605.000000 -819.000000 1605.000000 -835.000000 1605.000000 -851.000000 C 1623.666667 -851.000000 1642.333333 -851.000000 1661.000000 -851.000000 C 1661.000000 -821.833333 1661.000000 -792.666667 1661.000000 -763.500000 C 1661.000000 -734.333333 1661.000000 -705.166667 1661.000000 -676.000000z M 1453.000000 -526.000000 C 1494.333333 -526.000000 1529.666667 -540.666667 1559.000000 -570.000000 C 1588.333333 -599.333333 1603.666667 -634.666667 1605.000000 -676.000000 C 1605.000000 -699.000000 1605.000000 -722.000000 1605.000000 -745.000000 C 1554.833333 -745.000000 1504.666667 -745.000000 1454.500000 -745.000000 C 1404.333333 -745.000000 1354.166667 -745.000000 1304.000000 -745.000000 C 1304.000000 -722.000000 1304.000000 -699.000000 1304.000000 -676.000000 C 1304.000000 -634.666667 1318.666667 -599.333333 1348.000000 -570.000000 C 1377.333333 -540.666667 1412.333333 -526.000000 1453.000000 -526.000000z M 1127.000000 -1190.000000 C 1127.000000 -1161.041667 1127.000000 -1132.083333 1127.000000 -1103.125000 C 1127.000000 -1074.166667 1127.000000 -1045.208333 1127.000000 -1016.250000 C 1127.000000 -987.291667 1127.000000 -958.333333 1127.000000 -929.375000 C 1127.000000 -900.416667 1127.000000 -871.458333 1127.000000 -842.500000 C 1127.000000 -813.541667 1127.000000 -784.583333 1127.000000 -755.625000 C 1127.000000 -726.666667 1127.000000 -697.708333 1127.000000 -668.750000 C 1127.000000 -610.833333 1127.000000 -552.916667 1127.000000 -495.000000 C 1127.000000 -444.666667 1138.666667 -406.916667 1162.000000 -381.750000 C 1185.333333 -356.583333 1220.333333 -344.000000 1267.000000 -344.000000 C 1297.416667 -344.000000 1327.833333 -344.000000 1358.250000 -344.000000 C 1388.666667 -344.000000 1419.083333 -344.000000 1449.500000 -344.000000 C 1479.916667 -344.000000 1510.333333 -344.000000 1540.750000 -344.000000 C 1571.166667 -344.000000 1601.583333 -344.000000 1632.000000 -344.000000 C 1632.000000 -325.333333 1632.000000 -306.666667 1632.000000 -288.000000 C 1601.583333 -288.000000 1571.166667 -288.000000 1540.750000 -288.000000 C 1510.333333 -288.000000 1479.916667 -288.000000 1449.500000 -288.000000 C 1419.083333 -288.000000 1388.666667 -288.000000 1358.250000 -288.000000 C 1327.833333 -288.000000 1297.416667 -288.000000 1267.000000 -288.000000 C 1201.000000 -288.000000 1151.500000 -305.250000 1118.500000 -339.750000 C 1085.500000 -374.250000 1069.000000 -426.000000 1069.000000 -495.000000 C 1069.000000 -552.916667 1069.000000 -610.833333 1069.000000 -668.750000 C 1069.000000 -697.708333 1069.000000 -726.666667 1069.000000 -755.625000 C 1069.000000 -784.583333 1069.000000 -813.541667 1069.000000 -842.500000 C 1069.000000 -900.416667 1069.000000 -958.333333 1069.000000 -1016.250000 C 1069.000000 -1045.208333 1069.000000 -1074.166667 1069.000000 -1103.125000 C 1069.000000 -1132.083333 1069.000000 -1161.041667 1069.000000 -1190.000000 C 1088.333333 -1190.000000 1107.666667 -1190.000000 1127.000000 -1190.000000z M 1642.000000 -1056.000000 C 1707.666667 -1056.000000 1756.916667 -1038.916667 1789.750000 -1004.750000 C 1822.583333 -970.583333 1839.000000 -919.333333 1839.000000 -851.000000 C 1839.000000 -793.166667 1839.000000 -735.333333 1839.000000 -677.500000 C 1839.000000 -619.666667 1839.000000 -561.833333 1839.000000 -504.000000 C 1839.000000 -446.166667 1839.000000 -388.333333 1839.000000 -330.500000 C 1839.000000 -272.666667 1839.000000 -214.833333 1839.000000 -157.000000 C 1820.000000 -157.000000 1801.000000 -157.000000 1782.000000 -157.000000 C 1782.000000 -214.833333 1782.000000 -272.666667 1782.000000 -330.500000 C 1782.000000 -388.333333 1782.000000 -446.166667 1782.000000 -504.000000 C 1782.000000 -561.833333 1782.000000 -619.666667 1782.000000 -677.500000 C 1782.000000 -735.333333 1782.000000 -793.166667 1782.000000 -851.000000 C 1782.000000 -903.000000 1770.666667 -940.666667 1748.000000 -964.000000 C 1726.000000 -988.000000 1690.666667 -1000.000000 1642.000000 -1000.000000 C 1611.416667 -1000.000000 1580.833333 -1000.000000 1550.250000 -1000.000000 C 1519.666667 -1000.000000 1489.083333 -1000.000000 1458.500000 -1000.000000 C 1427.916667 -1000.000000 1397.333333 -1000.000000 1366.750000 -1000.000000 C 1336.166667 -1000.000000 1305.583333 -1000.000000 1275.000000 -1000.000000 C 1275.000000 -1018.666667 1275.000000 -1037.333333 1275.000000 -1056.000000 C 1305.583333 -1056.000000 1336.166667 -1056.000000 1366.750000 -1056.000000 C 1397.333333 -1056.000000 1427.916667 -1056.000000 1458.500000 -1056.000000 C 1489.083333 -1056.000000 1519.666667 -1056.000000 1550.250000 -1056.000000 C 1580.833333 -1056.000000 1611.416667 -1056.000000 1642.000000 -1056.000000z "/>
</g>
</svg>
